<svg width="1400" height="319" viewBox="0 0 1400 319" fill="none" xmlns="http://www.w3.org/2000/svg">
<g filter="url(#filter0_f_41_2745)">
<path d="M1003.5 193C1222.48 193 1400 106.367 1400 -0.5C1400 -107.367 1222.48 -194 1003.5 -194C784.519 -194 607 -107.367 607 -0.5C607 106.367 784.519 193 1003.5 193Z" fill="#002A4D" fill-opacity="0.47"/>
<path d="M476.5 136C687.749 136 859 49.3671 859 -57.5C859 -164.367 687.749 -251 476.5 -251C265.251 -251 1.5 -153.867 1.5 -47C1.5 59.8671 265.251 136 476.5 136Z" fill="#6EBFF8" fill-opacity="0.5"/>
<path d="M681.5 154C927.543 154 1127 58.1889 1127 -60C1127 -178.189 927.543 -274 681.5 -274C435.457 -274 236 -178.189 236 -60C236 58.1889 435.457 154 681.5 154Z" fill="#00C6C6" fill-opacity="0.4"/>
</g>
<defs>
<filter id="filter0_f_41_2745" x="-124.5" y="-400" width="1650.5" height="719" filterUnits="userSpaceOnUse" color-interpolation-filters="sRGB">
<feFlood flood-opacity="0" result="BackgroundImageFix"/>
<feBlend mode="normal" in="SourceGraphic" in2="BackgroundImageFix" result="shape"/>
<feGaussianBlur stdDeviation="63" result="effect1_foregroundBlur_41_2745"/>
</filter>
</defs>
</svg>
