<svg width="22" height="20" viewBox="0 0 22 20" fill="none" xmlns="http://www.w3.org/2000/svg">
<g clip-path="url(#clip0_42_3041)">
<path d="M15.2778 9.97656V9.375V8.125C15.2778 7.78125 15.0028 7.5 14.6667 7.5H13.4444H12.8333H11.0573C9.11319 7.5 7.47083 8.80859 6.92083 10.6094C6.79479 10.2422 6.72222 9.83594 6.72222 9.375C6.72222 6.95703 8.63576 5 11 5H12.8333H13.4444H14.6667C15.0028 5 15.2778 4.71875 15.2778 4.375V3.125V2.52344L19.3264 6.25L15.2778 9.97656ZM12.8333 9.375H13.4444V11.25C13.4444 11.9414 13.9906 12.5 14.6667 12.5H14.808C15.1097 12.5 15.4 12.3867 15.6253 12.1797L20.9344 7.29297C21.2247 7.02734 21.3889 6.64844 21.3889 6.25C21.3889 5.85156 21.2247 5.47266 20.9344 5.20703L15.6559 0.347656C15.4115 0.125 15.0983 0 14.7698 0C14.0365 0 13.4444 0.605469 13.4444 1.35547V3.125H12.8333H11.6111H11C7.62361 3.125 4.88889 5.92188 4.88889 9.375C4.88889 11.7344 6.21042 13.2461 7.32951 14.0977C7.55486 14.2695 7.76875 14.4141 7.96736 14.5352C8.13542 14.6406 8.29201 14.7266 8.42188 14.793C8.55174 14.8594 8.65868 14.9102 8.73507 14.9453C8.8191 14.9844 8.91076 15 9.00625 15H9.10174C9.47604 15 9.7816 14.6875 9.7816 14.3047C9.7816 14 9.57917 13.7305 9.33854 13.543C9.32326 13.5312 9.3118 13.5234 9.29653 13.5117C9.2316 13.4688 9.16667 13.4141 9.10556 13.3516C9.075 13.3203 9.04062 13.2891 9.01007 13.25C8.97951 13.2109 8.94896 13.1758 8.9184 13.1367C8.84965 13.0391 8.78472 12.9297 8.72743 12.8047C8.62813 12.5703 8.56319 12.2852 8.56319 11.9297C8.56319 10.5195 9.68229 9.37109 11.0649 9.37109H11.6111H12.8333V9.375ZM2.75 1.25C1.22986 1.25 0 2.50781 0 4.0625V17.1875C0 18.7422 1.22986 20 2.75 20H15.5833C17.1035 20 18.3333 18.7422 18.3333 17.1875V14.6875C18.3333 14.168 17.9247 13.75 17.4167 13.75C16.9087 13.75 16.5 14.168 16.5 14.6875V17.1875C16.5 17.707 16.0913 18.125 15.5833 18.125H2.75C2.24201 18.125 1.83333 17.707 1.83333 17.1875V4.0625C1.83333 3.54297 2.24201 3.125 2.75 3.125H5.19444C5.70243 3.125 6.11111 2.70703 6.11111 2.1875C6.11111 1.66797 5.70243 1.25 5.19444 1.25H2.75Z" fill="white"/>
</g>
<defs>
<clipPath id="clip0_42_3041">
<rect width="22" height="20" fill="white"/>
</clipPath>
</defs>
</svg>
